<svg version="1.1" viewBox="0.0 0.0 100.0 100.0" fill="none" stroke="none" stroke-linecap="square" stroke-miterlimit="10" xmlns:xlink="http://www.w3.org/1999/xlink" xmlns="http://www.w3.org/2000/svg"><clipPath id="p.0"><path d="m0 0l100.0 0l0 100.0l-100.0 0l0 -100.0z" clip-rule="nonzero"/></clipPath><g clip-path="url(#p.0)"><path fill="#343433" d="m0 0l100.0 0l0 100.0l-100.0 0z" fill-rule="evenodd"/><path fill="#000000" fill-opacity="0.0" d="m20.462576 51.55551l0 0c0 -17.482613 14.172457 -31.655071 31.65507 -31.655071l0 0c8.395447 0 16.447037 3.3350792 22.383514 9.271555c5.9364777 5.9364796 9.271553 13.98807 9.271553 22.383516l0 0c0 17.482613 -14.172455 31.655067 -31.655067 31.655067l0 0c-17.482613 0 -31.65507 -14.172455 -31.65507 -31.655067z" fill-rule="evenodd"/><path stroke="#71c9b8" stroke-width="3.0" stroke-linejoin="round" stroke-linecap="butt" d="m20.462576 51.55551l0 0c0 -17.482613 14.172457 -31.655071 31.65507 -31.655071l0 0c8.395447 0 16.447037 3.3350792 22.383514 9.271555c5.9364777 5.9364796 9.271553 13.98807 9.271553 22.383516l0 0c0 17.482613 -14.172455 31.655067 -31.655067 31.655067l0 0c-17.482613 0 -31.65507 -14.172455 -31.65507 -31.655067z" fill-rule="evenodd"/><path fill="#000000" fill-opacity="0.0" d="m52.117645 12.325019l0 75.34996" fill-rule="evenodd"/><path stroke="#343433" stroke-width="16.0" stroke-linejoin="round" stroke-linecap="butt" d="m52.117645 12.325019l0 75.34996" fill-rule="evenodd"/><path fill="#71c9b8" d="m51.048824 18.59308l2.4675026 0l0 2.4675026l-2.4675026 0z" fill-rule="evenodd"/><path fill="#71c9b8" d="m50.802765 81.42084l3.2214622 0l0 3.221466l-3.2214622 0z" fill-rule="evenodd"/><path fill="#000000" fill-opacity="0.0" d="m37.24257 50.480793l0 0c0 -8.378475 6.792095 -15.17057 15.17057 -15.17057l0 0c4.0234833 0 7.8821793 1.5983238 10.727211 4.4433556c2.8450317 2.8450356 4.4433594 6.7037277 4.4433594 10.727215l0 0c0 8.378475 -6.792099 15.170567 -15.17057 15.170567l0 0c-8.378475 0 -15.17057 -6.7920914 -15.17057 -15.170567z" fill-rule="evenodd"/><path stroke="#fcae17" stroke-width="8.0" stroke-linejoin="round" stroke-linecap="butt" stroke-dasharray="64.0,24.0,8.0,24.0" d="m37.24257 50.480793l0 0c0 -8.378475 6.792095 -15.17057 15.17057 -15.17057l0 0c4.0234833 0 7.8821793 1.5983238 10.727211 4.4433556c2.8450317 2.8450356 4.4433594 6.7037277 4.4433594 10.727215l0 0c0 8.378475 -6.792099 15.170567 -15.17057 15.170567l0 0c-8.378475 0 -15.17057 -6.7920914 -15.17057 -15.170567z" fill-rule="evenodd"/></g></svg>