<svg width="2703" height="663" viewBox="0 0 2703 663" fill="none" xmlns="http://www.w3.org/2000/svg">
<g id="cc-uffs-logo">
<g id="cc-uffs-logo-icon">
<path id="cc-uffs-logo-icon-center" fill-rule="evenodd" clip-rule="evenodd" d="M209.366 425.835C160.423 341.854 189.212 234.655 273.9 185.534C358.587 136.413 467.577 163.695 518.216 246.692C568.855 329.689 542.25 437.434 458.577 488.218L419.126 425.002C467.654 395.55 483.092 333.076 453.734 284.958C424.376 236.839 361.173 221.029 312.058 249.517C262.942 278.006 246.238 340.163 274.613 388.852L209.366 425.835Z" fill="#FCAE17"/>
<path id="cc-uffs-logo-iconsqurae-bottom" fill-rule="evenodd" clip-rule="evenodd" d="M350.541 591.72H378.857V620.037H350.541V591.72Z" fill="#71C9B8"/>
<path id="cc-uffs-logo-icon-square-up" fill-rule="evenodd" clip-rule="evenodd" d="M350.541 58.5862H378.857V86.9028H350.541V58.5862Z" fill="#71C9B8"/>
<path id="cc-uffs-logo-icon-arm-left" fill-rule="evenodd" clip-rule="evenodd" d="M277.308 611.249C159.842 572.827 80.2797 463.073 80.0682 339.161C79.8566 215.249 159.043 105.222 276.378 66.3976L277.308 89.5027C169.931 125.033 104.135 225.723 104.328 339.12C104.522 452.516 169.81 552.957 277.308 588.118V611.249Z" fill="#71C9B8"/>
<path id="cc-uffs-logo-icon-arm-left_2" fill-rule="evenodd" clip-rule="evenodd" d="M451.113 611.249C569.161 572.827 649.117 463.073 649.329 339.161C649.542 215.249 569.963 105.222 452.048 66.3976L451.113 89.5027C559.022 125.033 625.144 225.723 624.949 339.12C624.755 452.516 559.143 552.957 451.113 588.118V611.249Z" fill="#71C9B8"/>
</g>
<g id="cc-uffs-logo-text">
<path id="cc-uffs-logo-text-up" d="M838.158 246.334C837.133 257.32 833.349 265.768 826.806 271.676C820.263 277.535 811.376 280.465 800.146 280.465C792.577 280.465 785.863 278.561 780.004 274.752C774.193 270.895 769.677 265.45 766.454 258.419C763.231 251.339 761.596 243.258 761.547 234.176V217.696C761.547 208.614 763.134 200.509 766.308 193.38C769.481 186.202 773.998 180.66 779.857 176.754C785.766 172.848 792.528 170.895 800.146 170.895C811.278 170.895 820.141 173.824 826.732 179.684C833.324 185.543 837.133 193.941 838.158 204.879H834.203C833.08 195.064 829.662 187.618 823.949 182.54C818.236 177.413 810.302 174.85 800.146 174.85C789.794 174.85 781.42 178.756 775.023 186.568C768.676 194.381 765.502 204.854 765.502 217.989V233.663C765.502 242.062 766.918 249.508 769.75 256.002C772.582 262.447 776.635 267.477 781.908 271.09C787.23 274.703 793.31 276.51 800.146 276.51C810.351 276.51 818.31 273.995 824.022 268.966C829.784 263.937 833.178 256.393 834.203 246.334H838.158ZM869.799 279H865.844V172.359H869.799V279ZM959.447 226.119H905.98V275.045H966.918V279H902.025V172.359H966.918V176.314H905.98V222.164H959.447V226.119ZM951.317 162.325V163.058H946.337L932.641 148.702L919.091 163.058H914.403V162.032L931.249 144.527H934.179L951.317 162.325ZM1064.26 279H1060.3L991.454 179.098V279H987.426V172.359H991.454L1060.3 272.042V172.359H1064.26V279ZM1166.14 246.334C1165.11 257.32 1161.33 265.768 1154.78 271.676C1148.24 277.535 1139.35 280.465 1128.12 280.465C1120.56 280.465 1113.84 278.561 1107.98 274.752C1102.17 270.895 1097.66 265.45 1094.43 258.419C1091.21 251.339 1089.57 243.258 1089.53 234.176V217.696C1089.53 208.614 1091.11 200.509 1094.29 193.38C1097.46 186.202 1101.98 180.66 1107.84 176.754C1113.74 172.848 1120.51 170.895 1128.12 170.895C1139.26 170.895 1148.12 173.824 1154.71 179.684C1161.3 185.543 1165.11 193.941 1166.14 204.879H1162.18C1161.06 195.064 1157.64 187.618 1151.93 182.54C1146.21 177.413 1138.28 174.85 1128.12 174.85C1117.77 174.85 1109.4 178.756 1103 186.568C1096.65 194.381 1093.48 204.854 1093.48 217.989V233.663C1093.48 242.062 1094.9 249.508 1097.73 256.002C1100.56 262.447 1104.61 267.477 1109.89 271.09C1115.21 274.703 1121.29 276.51 1128.12 276.51C1138.33 276.51 1146.29 273.995 1152 268.966C1157.76 263.937 1161.16 256.393 1162.18 246.334H1166.14ZM1197.78 279H1193.82V172.359H1197.78V279ZM1287.5 247.14H1235.28L1223.41 279H1219.09L1259.01 172.359H1263.84L1303.76 279H1299.44L1287.5 247.14ZM1236.74 243.185H1286.03L1261.42 177.12L1236.74 243.185ZM1356.86 279V172.359H1386.38C1394.63 172.359 1402.1 174.312 1408.79 178.219C1415.48 182.125 1420.73 187.618 1424.54 194.698C1428.34 201.729 1430.3 209.615 1430.39 218.355V232.198C1430.39 241.085 1428.51 249.093 1424.75 256.222C1421.04 263.351 1415.84 268.917 1409.15 272.921C1402.46 276.925 1394.99 278.951 1386.74 279H1356.86ZM1360.81 176.314V275.045H1386.38C1393.85 275.045 1400.63 273.238 1406.74 269.625C1412.89 265.963 1417.7 260.885 1421.17 254.391C1424.63 247.848 1426.39 240.597 1426.44 232.638V218.941C1426.44 210.982 1424.73 203.756 1421.31 197.262C1417.94 190.768 1413.21 185.689 1407.1 182.027C1401.05 178.316 1394.33 176.412 1386.96 176.314H1360.81ZM1509.57 247.14H1457.35L1445.48 279H1441.16L1481.08 172.359H1485.91L1525.83 279H1521.51L1509.57 247.14ZM1458.81 243.185H1508.1L1483.5 177.12L1458.81 243.185Z" fill="#C7C8D1"/>
<path id="cc-uffs-logo-text-center" d="M893.285 450.987C891.22 468.658 884.679 482.313 873.664 491.952C862.724 501.514 848.152 506.295 829.945 506.295C810.209 506.295 794.374 499.219 782.44 485.067C770.583 470.915 764.655 451.982 764.655 428.268V412.203C764.655 396.674 767.409 383.019 772.917 371.239C778.501 359.458 786.38 350.431 796.554 344.159C806.728 337.809 818.509 334.635 831.896 334.635C849.643 334.635 863.872 339.607 874.582 349.552C885.291 359.42 891.526 373.113 893.285 390.631H871.139C869.227 377.32 865.058 367.682 858.632 361.715C852.283 355.748 843.371 352.765 831.896 352.765C817.82 352.765 806.767 357.966 798.734 368.37C790.779 378.774 786.801 393.576 786.801 412.777V428.956C786.801 447.086 790.587 461.506 798.161 472.215C805.734 482.925 816.329 488.28 829.945 488.28C842.185 488.28 851.556 485.526 858.058 480.018C864.637 474.434 868.997 464.757 871.139 450.987H893.285ZM1051.98 425.858C1051.98 442.228 1049.23 456.533 1043.72 468.773C1038.21 480.936 1030.41 490.23 1020.31 496.656C1010.21 503.082 998.431 506.295 984.967 506.295C971.81 506.295 960.144 503.082 949.97 496.656C939.796 490.154 931.878 480.936 926.217 469.002C920.633 456.992 917.764 443.108 917.611 427.35V415.301C917.611 399.237 920.403 385.047 925.988 372.73C931.572 360.414 939.451 351.005 949.625 344.503C959.876 337.924 971.58 334.635 984.738 334.635C998.125 334.635 1009.91 337.886 1020.08 344.388C1030.33 350.814 1038.21 360.185 1043.72 372.501C1049.23 384.741 1051.98 399.007 1051.98 415.301V425.858ZM1030.06 415.072C1030.06 395.259 1026.08 380.074 1018.13 369.518C1010.17 358.884 999.043 353.568 984.738 353.568C970.815 353.568 959.838 358.884 951.806 369.518C943.85 380.074 939.757 394.762 939.528 413.58V425.858C939.528 445.059 943.544 460.167 951.576 471.183C959.685 482.122 970.815 487.591 984.967 487.591C999.196 487.591 1010.21 482.428 1018.01 472.101C1025.82 461.697 1029.83 446.818 1030.06 427.464V415.072ZM1113.48 336.93L1168.1 473.248L1222.72 336.93H1251.29V504H1229.26V438.939L1231.33 368.714L1176.48 504H1159.61L1104.88 369.059L1107.06 438.939V504H1085.03V336.93H1113.48ZM1312.22 438.595V504H1290.19V336.93H1351.81C1370.09 336.93 1384.4 341.596 1394.73 350.929C1405.13 360.261 1410.33 372.616 1410.33 387.992C1410.33 404.209 1405.24 416.716 1395.07 425.514C1384.97 434.234 1370.48 438.595 1351.58 438.595H1312.22ZM1312.22 420.58H1351.81C1363.59 420.58 1372.62 417.826 1378.89 412.318C1385.16 406.734 1388.3 398.701 1388.3 388.221C1388.3 378.277 1385.16 370.321 1378.89 364.354C1372.62 358.387 1364.01 355.289 1353.07 355.06H1312.22V420.58ZM1556.06 336.93V450.528C1555.98 466.287 1551.01 479.177 1541.14 489.198C1531.35 499.219 1518.04 504.841 1501.21 506.065L1495.36 506.295C1477.08 506.295 1462.5 501.361 1451.64 491.493C1440.78 481.625 1435.27 468.046 1435.12 450.758V336.93H1456.92V450.069C1456.92 462.156 1460.25 471.565 1466.9 478.297C1473.56 484.952 1483.04 488.28 1495.36 488.28C1507.83 488.28 1517.35 484.952 1523.93 478.297C1530.58 471.642 1533.91 462.271 1533.91 450.184V336.93H1556.06ZM1706.26 355.06H1652.56V504H1630.64V355.06H1577.06V336.93H1706.26V355.06ZM1814.12 460.396H1744.13L1728.41 504H1705.69L1769.49 336.93H1788.76L1852.68 504H1830.07L1814.12 460.396ZM1750.78 442.267H1807.58L1779.12 364.125L1750.78 442.267ZM1996.68 450.987C1994.62 468.658 1988.08 482.313 1977.06 491.952C1966.12 501.514 1951.55 506.295 1933.34 506.295C1913.61 506.295 1897.77 499.219 1885.84 485.067C1873.98 470.915 1868.05 451.982 1868.05 428.268V412.203C1868.05 396.674 1870.81 383.019 1876.31 371.239C1881.9 359.458 1889.78 350.431 1899.95 344.159C1910.13 337.809 1921.91 334.635 1935.29 334.635C1953.04 334.635 1967.27 339.607 1977.98 349.552C1988.69 359.42 1994.92 373.113 1996.68 390.631H1974.54C1972.63 377.32 1968.46 367.682 1962.03 361.715C1955.68 355.748 1946.77 352.765 1935.29 352.765C1921.22 352.765 1910.17 357.966 1902.13 368.37C1894.18 378.774 1890.2 393.576 1890.2 412.777V428.956C1890.2 447.086 1893.99 461.506 1901.56 472.215C1909.13 482.925 1919.73 488.28 1933.34 488.28C1945.58 488.28 1954.95 485.526 1961.46 480.018C1968.04 474.434 1972.4 464.757 1974.54 450.987H1996.68ZM1940.57 505.033L1939.2 511C1950.9 513.065 1956.75 519.682 1956.75 530.851C1956.75 538.271 1953.69 544.123 1947.57 548.407C1941.45 552.767 1932.92 554.947 1921.98 554.947L1921.18 542.669C1927.22 542.669 1931.89 541.675 1935.18 539.686C1938.55 537.697 1940.23 534.905 1940.23 531.31C1940.23 527.944 1939 525.458 1936.56 523.851C1934.11 522.245 1929.14 521.097 1921.64 520.409L1925.31 505.033H1940.57ZM2119.12 460.396H2049.12L2033.4 504H2010.68L2074.48 336.93H2093.76L2157.67 504H2135.07L2119.12 460.396ZM2055.78 442.267H2112.58L2084.12 364.125L2055.78 442.267ZM2125.31 295.851C2125.31 304.112 2122.94 310.806 2118.2 315.931C2113.53 321.056 2107.68 323.619 2100.64 323.619C2097.51 323.619 2094.79 323.237 2092.5 322.472C2090.2 321.707 2087.18 320.139 2083.43 317.767C2079.76 315.396 2077.08 313.98 2075.4 313.521C2073.79 312.986 2071.92 312.718 2069.78 312.718C2066.64 312.718 2063.96 313.942 2061.74 316.39C2059.53 318.762 2058.42 321.821 2058.42 325.57L2044.19 324.767C2044.19 316.581 2046.48 309.811 2051.07 304.457C2055.74 299.102 2061.63 296.424 2068.74 296.424C2071.42 296.424 2073.83 296.807 2075.97 297.572C2078.12 298.337 2081.02 299.828 2084.69 302.047C2088.37 304.265 2091.16 305.719 2093.07 306.407C2095.06 307.096 2097.24 307.44 2099.61 307.44C2102.9 307.44 2105.62 306.139 2107.76 303.539C2109.98 300.938 2111.09 297.916 2111.09 294.474L2125.31 295.851ZM2307.3 425.858C2307.3 442.228 2304.55 456.533 2299.04 468.773C2293.53 480.936 2285.73 490.23 2275.63 496.656C2265.53 503.082 2253.75 506.295 2240.29 506.295C2227.13 506.295 2215.47 503.082 2205.29 496.656C2195.12 490.154 2187.2 480.936 2181.54 469.002C2175.96 456.992 2173.09 443.108 2172.93 427.35V415.301C2172.93 399.237 2175.73 385.047 2181.31 372.73C2186.89 360.414 2194.77 351.005 2204.95 344.503C2215.2 337.924 2226.9 334.635 2240.06 334.635C2253.45 334.635 2265.23 337.886 2275.4 344.388C2285.65 350.814 2293.53 360.185 2299.04 372.501C2304.55 384.741 2307.3 399.007 2307.3 415.301V425.858ZM2285.38 415.072C2285.38 395.259 2281.41 380.074 2273.45 369.518C2265.5 358.884 2254.37 353.568 2240.06 353.568C2226.14 353.568 2215.16 358.884 2207.13 369.518C2199.17 380.074 2195.08 394.762 2194.85 413.58V425.858C2194.85 445.059 2198.87 460.167 2206.9 471.183C2215.01 482.122 2226.14 487.591 2240.29 487.591C2254.52 487.591 2265.53 482.428 2273.34 472.101C2281.14 461.697 2285.16 446.818 2285.38 427.464V415.072Z" fill="white"/>
<path id="cc-uffs-logo-text-right" d="M2434.43 392.359V464.576C2434.43 475.855 2431.15 484.669 2424.61 491.017C2418.07 497.315 2409.21 500.465 2398.02 500.465C2386.84 500.465 2377.98 497.315 2371.44 491.017C2364.89 484.669 2361.6 475.953 2361.55 464.869V392.359H2365.5V464.43C2365.5 474.293 2368.46 482.105 2374.37 487.867C2380.32 493.629 2388.21 496.51 2398.02 496.51C2407.84 496.51 2415.7 493.629 2421.61 487.867C2427.52 482.105 2430.47 474.269 2430.47 464.356V392.359H2434.43ZM2521.29 446.559H2466.65V499H2462.7V392.359H2528.76V396.314H2466.65V442.457H2521.29V446.559ZM2607.13 446.559H2552.49V499H2548.54V392.359H2614.6V396.314H2552.49V442.457H2607.13V446.559ZM2698.24 473.438C2698.24 468.897 2697.17 465.064 2695.02 461.939C2692.92 458.766 2689.58 455.982 2684.99 453.59C2680.45 451.148 2673.56 448.658 2664.33 446.119C2655.1 443.58 2648.17 441.017 2643.53 438.429C2638.94 435.841 2635.57 432.838 2633.42 429.42C2631.28 426.002 2630.2 421.852 2630.2 416.969C2630.2 409.205 2633.47 402.931 2640.02 398.146C2646.56 393.312 2655.08 390.895 2665.58 390.895C2672.41 390.895 2678.54 392.237 2683.96 394.923C2689.43 397.56 2693.65 401.295 2696.63 406.129C2699.61 410.914 2701.1 416.334 2701.1 422.389H2697.15C2697.15 414.43 2694.22 407.862 2688.36 402.687C2682.5 397.462 2674.9 394.85 2665.58 394.85C2656.2 394.85 2648.61 396.949 2642.8 401.148C2637.04 405.299 2634.16 410.523 2634.16 416.822C2634.16 423.219 2636.67 428.37 2641.7 432.276C2646.73 436.183 2655.03 439.649 2666.6 442.677C2678.18 445.655 2686.65 449.122 2692.02 453.077C2698.85 458.106 2702.27 464.845 2702.27 473.292C2702.27 478.663 2700.76 483.424 2697.73 487.574C2694.7 491.676 2690.41 494.85 2684.84 497.096C2679.27 499.342 2673.02 500.465 2666.09 500.465C2658.38 500.465 2651.44 499.195 2645.29 496.656C2639.14 494.068 2634.5 490.406 2631.37 485.67C2628.3 480.934 2626.76 475.343 2626.76 468.897H2630.71C2630.71 477.638 2633.99 484.425 2640.53 489.259C2647.07 494.093 2655.59 496.51 2666.09 496.51C2675.42 496.51 2683.11 494.386 2689.16 490.138C2695.22 485.841 2698.24 480.274 2698.24 473.438Z" fill="#C7C8D1"/>
</g>
</g>
</svg>
